<?xml version="1.0" encoding="UTF-8"?>
<svg version="1.1" xmlns="http://www.w3.org/2000/svg" width="96" height="96">
<path d="M0 0 C2.97860225 2.07207113 5.50477914 4.37345173 8 7 C8.99 6.67 9.98 6.34 11 6 C17.88507392 5.26575261 22.40457816 5.85938784 28 10 C31.11355548 13.19549115 32.49233162 15.55790165 33 20 C33.86625 20.226875 34.7325 20.45375 35.625 20.6875 C40.04999314 22.40833066 43.49485943 24.68597436 46.1484375 28.765625 C47.98598517 33.58708035 47.51031701 38.94093135 47 44 C44.86526742 48.50665768 42.08177871 51.1741532 38 54 C34.50848188 55.16383937 31.73861565 55.14848376 28.0534668 55.17700195 C27.35065582 55.18357315 26.64784485 55.19014435 25.92373657 55.19691467 C23.59889617 55.21661792 21.27412027 55.22830345 18.94921875 55.23828125 C17.75651336 55.24439454 17.75651336 55.24439454 16.53971291 55.25063133 C12.3312468 55.27147919 8.12281319 55.28578656 3.91430664 55.29516602 C-0.42689154 55.30622911 -4.76757697 55.3406311 -9.10859394 55.38033772 C-12.45182737 55.40651225 -15.79493873 55.41485856 -19.13826561 55.41844749 C-20.73821667 55.42331115 -22.33816236 55.43491894 -23.93801308 55.45348549 C-26.18084728 55.47789656 -28.42235617 55.47690917 -30.6652832 55.4699707 C-32.57698051 55.47877007 -32.57698051 55.47877007 -34.52729797 55.48774719 C-39.95626095 54.72523966 -44.66551444 51.4136711 -48.08203125 47.1015625 C-50.27764638 42.0750053 -49.68272617 36.32273552 -49 31 C-46.88869839 26.46461135 -44.09447668 23.8346377 -40 21 C-39.01 20.67 -38.02 20.34 -37 20 C-36.00151212 17.7069468 -36.00151212 17.7069468 -35.25 14.9375 C-32.92578924 8.20952147 -29.87853032 3.20115949 -23.5703125 -0.37890625 C-15.20867136 -4.02600504 -8.26973104 -3.6685273 0 0 Z " fill="#ED1E26" transform="translate(49,19)"/>
<path d="M0 0 C13.35470942 -0.49461887 13.35470942 -0.49461887 16.42578125 1.859375 C18 4 18 4 18.4375 6.5 C17.93027366 9.39843626 16.93615523 10.82182537 15 13 C15.474375 13.70125 15.94875 14.4025 16.4375 15.125 C18.08739857 18.16081337 18.60368464 20.59168786 19 24 C17.02 24 15.04 24 13 24 C12.82984375 23.36191406 12.6596875 22.72382812 12.484375 22.06640625 C12.24203125 21.24011719 11.9996875 20.41382812 11.75 19.5625 C11.51796875 18.73878906 11.2859375 17.91507813 11.046875 17.06640625 C10.70140625 16.38449219 10.3559375 15.70257813 10 15 C8.68 14.67 7.36 14.34 6 14 C6 17.3 6 20.6 6 24 C4.02 24 2.04 24 0 24 C0 16.08 0 8.16 0 0 Z " fill="#FCE5E6" transform="translate(39,40)"/>
<path d="M0 0 C12.4 0 12.4 0 16 3 C17 4 17 4 17.25 6.8125 C17 10 17 10 16.0625 12.3125 C12.71730292 15.04947943 9.25231796 14.75348881 5 15 C5 17.97 5 20.94 5 24 C3.35 24 1.7 24 0 24 C0 16.08 0 8.16 0 0 Z " fill="#FEF4F4" transform="translate(61,40)"/>
<path d="M0 0 C4.62 0 9.24 0 14 0 C14 1.32 14 2.64 14 4 C11.03 4 8.06 4 5 4 C5 5.65 5 7.3 5 9 C7.97 9 10.94 9 14 9 C14 10.65 14 12.3 14 14 C11.03 14 8.06 14 5 14 C5 15.65 5 17.3 5 19 C8.3 19 11.6 19 15 19 C15 20.65 15 22.3 15 24 C10.05 24 5.1 24 0 24 C0 16.08 0 8.16 0 0 Z " fill="#FDEEEF" transform="translate(21,40)"/>
<path d="M0 0 C2.375 -0.125 2.375 -0.125 5 0 C5.66 0.66 6.32 1.32 7 2 C6.46428571 5.53571429 6.46428571 5.53571429 5 7 C3.33382885 7.04063832 1.66611905 7.042721 0 7 C0 4.69 0 2.38 0 0 Z " fill="#EF363D" transform="translate(66,44)"/>
<path d="M0 0 C1.65 0 3.3 0 5 0 C5.38218767 1.65614657 5.71395102 3.32457024 6 5 C5 6 5 6 2.4375 6.0625 C1.2309375 6.0315625 1.2309375 6.0315625 0 6 C0 4.02 0 2.04 0 0 Z " fill="#ED272E" transform="translate(45,44)"/>
</svg>
